<svg width="300" height="300" viewBox="0 0 300 300" fill="none" xmlns="http://www.w3.org/2000/svg">
<path d="M0 28C0 12.536 12.536 0 28 0H272C287.464 0 300 12.536 300 28V272C300 287.464 287.464 300 272 300H28C12.536 300 0 287.464 0 272V28Z" fill="white"/>
<circle cx="150" cy="150" r="112.5" stroke="#1363DF" stroke-width="25"/>
<ellipse cx="101.613" cy="121.774" rx="16.129" ry="16.129" fill="#1363DF"/>
<path d="M85.4839 137.903C99.0231 144.453 106.098 144.536 117.742 137.903V194.355H85.4839V137.903Z" fill="#1363DF"/>
<ellipse cx="150" cy="121.774" rx="16.129" ry="16.129" fill="#1363DF"/>
<path d="M133.871 137.903C147.41 144.453 154.485 144.536 166.129 137.903V194.355H133.871V137.903Z" fill="#1363DF"/>
<ellipse cx="198.387" cy="121.774" rx="16.129" ry="16.129" fill="#1363DF"/>
<path d="M182.258 137.903C195.797 144.453 202.872 144.536 214.516 137.903V194.355H182.258V137.903Z" fill="#1363DF"/>
<rect x="149.464" y="250" width="125.536" height="25" fill="#1363DF"/>
</svg>
