<svg width="233" height="230" viewBox="0 0 233 230" fill="none" xmlns="http://www.w3.org/2000/svg">
<path d="M220.5 115C220.5 171.457 174.091 217.5 116.5 217.5C58.9092 217.5 12.5 171.457 12.5 115C12.5 58.543 58.9092 12.5 116.5 12.5C174.091 12.5 220.5 58.543 220.5 115Z" stroke="#000587" stroke-width="25"/>
<ellipse cx="71.4032" cy="89.0323" rx="15.0323" ry="14.8387" fill="#000587"/>
<path d="M56.371 103.871C68.9895 109.896 75.5835 109.973 86.4355 103.871V155.806H56.371V103.871Z" fill="#000587"/>
<ellipse cx="116.5" cy="89.0323" rx="15.0323" ry="14.8387" fill="#000587"/>
<path d="M101.468 103.871C114.086 109.896 120.68 109.973 131.532 103.871V155.806H101.468V103.871Z" fill="#000587"/>
<ellipse cx="161.597" cy="89.0323" rx="15.0323" ry="14.8387" fill="#000587"/>
<path d="M146.565 103.871C159.183 109.896 165.777 109.973 176.629 103.871V155.806H146.565V103.871Z" fill="#000587"/>
<rect x="116" y="207" width="117" height="23" fill="#000587"/>
</svg>
